 <svg  version="1.0" xmlns="http://www.w3.org/2000/svg"  width="300.000000pt" height="250.000000pt" viewBox="0 0 300.000000 250.000000"  preserveAspectRatio="xMidYMid meet">  <g transform="translate(0.000000,250.000000) scale(0.100000,-0.100000)" fill="#545454" stroke="none"> <path d="M529 2356 c-158 -57 -209 -245 -103 -383 40 -53 105 -81 191 -82 l41 -1 -3 -37 c-1 -21 -11 -55 -21 -75 -15 -32 -16 -41 -5 -62 10 -18 10 -28 1 -45 -11 -22 -6 -55 13 -79 6 -8 12 -36 14 -63 l3 -49 -53 0 c-59 0 -139 -33 -174 -71 -61 -67 -80 -185 -43 -267 22 -49 71 -98 118 -119 26 -11 32 -18 27 -31 -18 -41 -27 -102 -21 -135 10 -52 47 -91 158 -164 54 -36 101 -69 104 -75 12 -19 -15 -24 -124 -27 -126 -3 -169 -18 -224 -79 -104 -116 -62 -309 81 -373 42 -18 76 -19 996 -19 1051 0 1005 -3 1074 63 87 83 96 234 19 328 -7 9 -36 31 -63 48 -49 31 -49 31 -189 31 -78 0 -147 4 -155 9 -17 11 -5 31 19 31 19 0 60 48 60 70 0 6 9 23 20 37 11 14 20 39 20 54 0 23 5 30 28 35 15 3 37 10 48 16 24 11 48 54 39 69 -4 5 0 9 7 9 14 0 51 53 46 67 -1 5 26 27 59 51 100 69 135 170 101 286 -17 56 -90 128 -148 145 -30 9 -58 28 -87 58 -23 25 -46 42 -52 38 -6 -3 -11 -1 -11 5 0 20 -49 60 -73 60 -13 0 -34 11 -46 24 -12 13 -35 26 -50 29 -26 6 -30 12 -41 71 -7 36 -10 73 -6 81 13 35 85 55 201 55 61 0 128 5 149 10 99 22 176 122 176 225 0 97 -38 165 -118 212 l-47 28 -960 2 c-765 2 -967 0 -996 -11z m1947 -11 c90 -16 170 -129 162 -229 -6 -68 -46 -138 -100 -174 -39 -25 -50 -27 -187 -33 -148 -6 -181 -13 -232 -50 l-29 -20 0 37 c0 68 -40 212 -68 246 -49 58 -117 71 -229 44 -32 -8 -161 -36 -287 -62 -152 -32 -240 -55 -260 -69 -35 -23 -105 -121 -105 -147 -1 -22 -13 -23 -54 -2 -42 22 -239 34 -270 17 -27 -15 -79 -17 -94 -2 -5 5 -53 11 -105 12 -84 2 -99 5 -136 29 -54 36 -94 106 -100 174 -8 101 64 203 162 228 44 11 1870 12 1932 1z m-521 -205 c22 -11 48 -33 58 -49 13 -21 147 -583 147 -615 0 -2 15 0 33 3 31 7 72 2 111 -15 15 -6 17 -4 11 7 -8 12 -6 12 8 0 14 -11 17 -11 17 0 0 11 2 11 10 -1 9 -13 11 -13 20 0 6 10 10 11 10 3 0 -7 5 -13 11 -13 6 0 -3 18 -20 39 -18 22 -28 42 -23 45 9 5 68 -65 64 -76 -1 -5 15 -8 37 -8 27 0 53 -10 87 -32 144 -96 134 -304 -16 -380 -54 -27 -59 -28 -253 -29 l-198 -2 -60 42 c-33 24 -64 40 -67 36 -4 -4 -113 -172 -243 -373 -223 -346 -239 -368 -283 -391 -34 -17 -55 -22 -80 -17 -20 4 -146 79 -298 178 -145 94 -307 199 -361 234 -108 71 -137 107 -137 170 0 37 16 67 133 245 586 896 562 860 602 882 20 11 582 134 619 136 11 1 38 -8 61 -19z m-889 -265 l35 -14 -21 -38 c-35 -65 -214 -326 -231 -336 -22 -13 -109 1 -109 17 0 7 -11 30 -25 50 -16 23 -25 51 -25 74 0 21 -5 43 -11 49 -8 8 -8 17 0 31 6 11 11 37 11 57 0 52 33 95 73 96 18 0 48 7 67 14 48 19 192 19 236 0z m-366 -13 c0 -5 -7 -17 -15 -28 -15 -19 -20 -8 -9 20 6 17 24 22 24 8z m-30 -105 c0 -34 -7 -50 -19 -42 -10 6 0 75 10 75 5 0 9 -15 9 -33z m0 -123 c0 -19 -4 -34 -10 -34 -5 0 -10 18 -10 41 0 24 4 38 10 34 6 -3 10 -22 10 -41z m1525 14 c25 -11 34 -28 15 -28 -16 0 -60 23 -60 32 0 11 14 10 45 -4z m40 -47 c-8 -13 55 -63 71 -57 9 3 14 -2 14 -13 0 -27 -6 -29 -72 -17 -55 10 -62 14 -69 39 -11 40 -4 52 31 54 17 1 28 -2 25 -6z m65 -11 c14 -10 22 -21 19 -25 -7 -7 -69 27 -69 38 0 13 24 7 50 -13z m-1595 -59 c9 -18 11 -32 5 -36 -8 -5 -40 43 -40 60 0 16 22 1 35 -24z m-1 -67 c35 -5 52 -13 63 -31 23 -35 6 -42 -22 -8 -18 22 -24 26 -25 13 0 -22 47 -58 67 -51 19 8 29 25 -104 -181 -57 -87 -103 -165 -103 -174 0 -20 -42 -9 -100 26 -57 35 -100 113 -100 181 0 66 43 147 96 184 61 43 127 54 228 41z m144 -2 c9 -6 4 -16 -17 -36 -28 -27 -29 -27 -35 -8 -4 11 -14 23 -24 27 -14 5 -14 7 -2 15 18 12 61 13 78 2z m1127 -411 c3 -5 19 -12 35 -16 37 -8 38 -18 3 -32 -24 -9 -17 -11 50 -12 55 -1 77 3 78 12 0 8 2 8 5 1 4 -8 37 -10 111 -7 129 6 158 0 143 -27 -6 -10 -9 -23 -8 -29 2 -5 -14 -20 -34 -34 l-37 -26 -20 35 c-14 23 -28 34 -44 34 -12 0 -28 5 -33 10 -14 14 -54 -24 -54 -51 0 -11 14 -38 32 -60 43 -53 45 -104 6 -137 -15 -13 -26 -28 -22 -33 7 -11 -36 -28 -54 -21 -7 2 -23 -5 -36 -17 -20 -18 -27 -20 -51 -11 -16 6 -38 10 -49 8 -12 -1 -32 5 -46 15 -33 23 -43 21 -29 -5 10 -19 9 -20 -7 -13 -11 4 -26 8 -34 9 -9 1 -21 5 -28 10 -20 12 -15 -29 6 -47 22 -20 82 -34 82 -19 0 5 -16 13 -35 16 -19 4 -35 11 -35 16 0 12 69 8 90 -5 8 -5 34 -8 58 -6 30 2 42 -1 38 -8 -4 -6 -23 -11 -43 -11 -20 0 -34 -3 -31 -6 3 -3 108 -5 232 -4 135 0 243 -4 267 -10 54 -15 134 -92 148 -145 33 -120 -12 -218 -124 -271 l-50 -24 -939 0 c-711 0 -949 3 -980 12 -54 16 -128 90 -144 144 -26 89 -9 158 56 223 58 58 100 71 224 71 52 0 109 5 126 11 29 10 36 8 69 -19 21 -16 49 -35 62 -42 14 -7 30 -17 35 -22 27 -23 295 -192 323 -204 42 -18 107 -18 141 0 32 17 68 55 108 116 16 25 32 50 37 55 18 24 110 170 115 184 3 8 12 22 20 30 33 37 122 186 122 205 0 17 2 18 10 6 5 -8 10 -10 10 -4 0 6 11 27 24 47 17 24 21 37 13 41 -7 3 -6 5 3 5 8 1 25 17 38 36 22 35 36 43 47 26z m473 -81 c-11 -34 -28 -49 -28 -26 0 23 22 66 31 60 4 -2 3 -18 -3 -34z m-228 -51 c-6 -11 -8 -24 -5 -29 3 -5 1 -11 -5 -15 -6 -3 -13 1 -16 10 -8 21 13 68 26 60 7 -4 6 -13 0 -26z m65 -31 c4 -17 3 -28 -3 -28 -10 0 -22 32 -22 60 0 22 18 -1 25 -32z m104 -14 c-20 -22 -49 -32 -49 -19 0 12 55 53 63 48 5 -3 -2 -16 -14 -29z m-79 -34 c0 -5 -18 -10 -40 -10 -22 0 -40 5 -40 10 0 6 18 10 40 10 22 0 40 -4 40 -10z m-20 -39 c0 -18 -21 -64 -26 -58 -9 8 6 67 17 67 5 0 9 -4 9 -9z m-40 -99 c0 -16 -32 -52 -46 -52 -11 0 -9 7 8 30 21 29 38 39 38 22z m-101 -88 c-27 -15 -59 -18 -59 -5 0 10 62 30 74 23 5 -3 -2 -11 -15 -18z"/> <path d="M667 2173 c-9 -11 -17 -28 -17 -39 0 -10 -9 -32 -20 -49 -29 -43 -24 -64 25 -120 l45 -49 0 31 c0 22 -6 33 -19 38 -54 17 -63 72 -15 93 20 10 23 15 14 31 -12 23 -5 47 17 55 19 8 93 -25 117 -53 11 -11 27 -21 36 -21 25 0 50 -33 50 -67 0 -17 -12 -47 -26 -68 -19 -28 -21 -36 -9 -31 9 3 19 6 21 6 3 0 13 18 23 41 27 61 13 111 -41 144 -10 6 -35 23 -57 39 -53 37 -119 46 -144 19z"/> <path d="M693 2069 c-43 -12 -50 -27 -24 -52 15 -16 37 -22 86 -25 66 -4 95 6 95 34 0 31 -102 59 -157 43z m87 -39 c0 -5 -13 -10 -29 -10 -17 0 -33 5 -36 10 -4 6 8 10 29 10 20 0 36 -4 36 -10z"/> <path d="M853 2055 c43 -42 0 -87 -83 -87 -41 0 -50 -3 -50 -18 0 -10 7 -24 16 -31 15 -12 16 -11 10 9 -7 19 -4 22 23 22 20 0 31 -6 33 -17 4 -15 11 -11 42 21 31 32 37 44 34 75 -2 26 -8 37 -22 39 -18 4 -19 3 -3 -13z"/> <path d="M1586 2075 c-203 -44 -305 -70 -318 -82 -22 -19 -122 -163 -114 -163 7 0 86 107 86 115 0 7 15 22 41 43 17 13 165 47 469 108 14 3 43 9 65 14 89 21 136 9 173 -43 13 -19 22 -25 22 -16 0 29 -85 92 -118 88 -4 0 -141 -29 -306 -64z"/> <path d="M1798 2000 c-24 -24 -29 -36 -24 -58 7 -30 49 -72 71 -72 29 0 64 24 76 51 15 37 -2 82 -37 98 -38 17 -53 14 -86 -19z m86 -32 c23 -38 -36 -77 -64 -43 -10 12 -10 21 -1 41 13 29 47 30 65 2z"/> <path d="M2009 2008 c5 -13 9 -26 9 -31 1 -21 34 -158 38 -154 7 7 -39 207 -47 207 -5 0 -5 -10 0 -22z"/> <path d="M2026 1773 c3 -15 15 -62 25 -105 22 -87 23 -98 10 -98 -5 0 -19 44 -31 98 -23 102 -39 144 -40 106 0 -35 41 -188 55 -203 11 -12 18 -10 41 8 20 16 22 21 10 21 -10 0 -14 5 -11 10 4 6 11 7 17 4 7 -5 9 -2 5 8 -3 9 -11 44 -18 78 -7 38 -15 57 -20 49 -6 -10 -11 -6 -18 13 -14 38 -33 47 -25 11z"/> <path d="M1287 1600 c-96 -25 -190 -104 -236 -200 -23 -48 -26 -68 -26 -155 0 -89 3 -106 28 -157 25 -52 136 -171 155 -166 4 1 25 -7 47 -17 49 -22 194 -25 240 -5 17 7 32 14 35 14 20 4 99 59 95 67 -4 5 0 9 7 9 16 0 69 80 87 130 14 38 30 170 21 170 -3 0 -6 14 -7 31 -6 88 -96 205 -196 254 -60 29 -185 41 -250 25z m228 -44 c267 -122 271 -487 6 -618 -38 -19 -62 -23 -141 -23 -81 0 -102 4 -143 25 -77 39 -123 85 -159 158 -61 124 -41 270 52 375 94 108 255 143 385 83z"/> <path d="M1353 1409 c-31 -19 -82 -88 -117 -156 -40 -78 -3 -157 84 -183 54 -15 105 15 157 92 68 101 78 148 44 204 -20 33 -75 64 -113 64 -12 0 -37 -10 -55 -21z m91 -55 c9 -3 16 -18 16 -32 0 -31 -72 -155 -102 -176 -28 -20 -58 -4 -58 30 0 37 97 184 121 184 4 0 14 -3 23 -6z"/> <path d="M1975 1490 c28 -12 37 -12 30 0 -3 6 -16 10 -28 9 -21 0 -21 -1 -2 -9z"/> <path d="M2120 1479 c0 -19 -4 -21 -34 -16 l-34 5 22 -22 21 -22 23 20 c23 21 28 41 12 51 -6 3 -10 -4 -10 -16z"/> <path d="M765 1243 c-82 -126 -153 -234 -159 -242 -9 -11 -8 -13 2 -7 8 5 70 94 139 200 69 105 133 202 142 216 17 25 33 60 27 60 -2 0 -70 -102 -151 -227z"/> <path d="M1850 1456 c-6 -9 -10 -21 -8 -28 3 -8 9 -4 17 10 15 28 9 39 -9 18z"/> <path d="M1938 1462 c-59 -7 -106 -92 -93 -166 16 -84 94 -174 211 -242 l43 -25 47 27 c68 40 160 129 183 178 38 78 23 173 -33 210 -32 20 -59 21 -32 1 11 -8 16 -15 12 -15 -4 0 5 -11 20 -24 33 -27 40 -91 18 -145 -21 -50 -80 -118 -125 -144 -21 -12 -39 -27 -39 -33 0 -6 -6 -11 -12 -12 -7 0 -22 -3 -34 -7 -40 -13 -181 111 -216 191 -7 16 -17 32 -23 36 -7 5 -6 8 1 8 6 0 9 10 7 24 -3 13 2 35 11 48 9 14 13 27 10 31 -11 11 25 38 57 42 27 4 30 2 26 -16 -5 -19 -4 -19 16 -6 19 13 24 11 56 -20 41 -39 65 -42 87 -8 9 14 25 25 35 25 11 0 19 7 19 16 0 8 4 13 9 9 5 -3 13 0 17 6 16 26 -62 -2 -89 -32 l-28 -30 -28 30 c-24 26 -42 34 -96 45 -5 1 -22 0 -37 -2z"/> <path d="M2230 1448 c0 -9 -6 -19 -12 -21 -8 -3 -7 -6 4 -6 22 -1 29 11 17 29 -7 13 -9 12 -9 -2z"/> <path d="M2351 1413 c54 -106 1 -233 -145 -340 -32 -24 -53 -43 -47 -43 28 0 96 45 142 93 68 71 89 120 89 207 l0 71 23 -18 c19 -14 24 -26 23 -62 -1 -27 4 -46 12 -48 14 -5 17 -43 2 -43 -5 0 -10 -16 -10 -35 0 -19 5 -35 10 -35 6 0 10 -9 10 -20 0 -11 -4 -20 -10 -20 -14 0 -23 -46 -12 -65 7 -14 10 -9 16 24 3 22 11 41 17 41 7 0 9 -12 5 -35 -8 -39 0 -47 13 -12 5 13 4 31 -2 45 -8 16 -7 26 1 34 15 15 16 75 1 83 -6 4 -7 14 -4 24 17 42 15 62 -10 87 -20 20 -23 29 -15 44 7 14 5 24 -10 42 l-20 23 10 -28 c13 -36 13 -47 0 -47 -5 0 -10 6 -10 14 0 23 -28 45 -50 39 -11 -3 -26 0 -34 6 -10 8 -8 -1 5 -26z m124 -110 c4 -20 3 -33 -3 -33 -13 0 -22 25 -22 58 0 34 16 18 25 -25z m5 -108 c0 -19 -4 -35 -10 -35 -5 0 -10 16 -10 35 0 19 5 35 10 35 6 0 10 -16 10 -35z"/> <path d="M1817 1381 c-4 -18 -7 -45 -6 -60 1 -17 4 -11 10 19 5 25 8 52 6 60 -2 8 -6 0 -10 -19z"/> <path d="M1816 1263 c10 -40 14 -41 14 -5 0 18 -5 32 -10 32 -6 0 -8 -11 -4 -27z"/> <path d="M1840 1214 c0 -11 13 -35 30 -54 16 -19 29 -41 30 -48 0 -7 -14 -33 -31 -58 -17 -25 -29 -50 -27 -56 2 -6 23 18 46 53 40 62 41 64 23 84 -11 11 -31 38 -45 59 -19 28 -26 34 -26 20z"/> <path d="M1810 968 c0 -15 -100 -171 -112 -176 -4 -2 -8 -8 -8 -14 0 -6 -10 -25 -23 -42 -33 -44 -39 -56 -29 -56 8 0 175 251 187 283 4 10 2 17 -4 17 -6 0 -11 -6 -11 -12z"/> <path d="M603 904 c-4 -12 3 -25 23 -41 28 -23 432 -291 548 -363 31 -19 66 -43 78 -53 22 -18 60 -25 43 -8 -6 5 -158 107 -340 226 -345 226 -352 231 -343 240 5 5 648 -410 697 -449 11 -9 13 -8 10 4 -3 8 -68 56 -145 107 -76 51 -155 103 -174 115 -193 129 -349 227 -368 233 -16 5 -24 2 -29 -11z"/> <path d="M1114 705 c49 -31 109 -70 134 -87 24 -17 43 -24 40 -17 -6 20 -218 159 -242 159 -12 0 17 -23 68 -55z"/> <path d="M1026 725 c5 -12 150 -113 179 -124 5 -2 17 -9 25 -16 17 -13 50 -27 50 -20 0 2 -39 31 -87 63 -143 96 -173 113 -167 97z"/> <path d="M1575 594 c-26 -41 -45 -77 -42 -80 2 -3 27 31 56 76 28 44 47 80 42 80 -5 0 -30 -34 -56 -76z"/> <path d="M830 656 c0 -2 64 -46 143 -97 78 -51 187 -122 241 -158 148 -96 197 -90 275 35 22 35 37 64 33 64 -4 0 -20 -20 -35 -45 -52 -82 -80 -105 -127 -105 -29 0 -54 8 -83 29 -23 15 -46 30 -52 32 -5 2 -82 52 -170 110 -152 101 -225 145 -225 135z"/> <path d="M1924 948 c-38 -46 -54 -89 -54 -148 0 -54 22 -120 40 -120 7 0 5 10 -4 28 -49 95 -15 211 76 255 l33 17 -32 0 c-23 0 -38 -8 -59 -32z"/> <path d="M1772 691 c-5 -3 5 -14 23 -23 32 -16 34 -16 32 2 -1 19 -37 32 -55 21z"/> <path d="M1759 646 c15 -18 71 -38 71 -26 0 11 -52 40 -71 40 -9 0 -9 -3 0 -14z"/> </g> </svg> 